# xmcd
#
# Track frame offsets:
# 150
# 13097
# 30395
# 41327
# 59720
# 73587
# 85022
# 100222
# 113877
# 124032
# 138552
# 148840
# 161852
# 175640
# 192547
# 205266
# 218525
# 229777
# 244837
# 257597
#
# Disc length: 3602 seconds
#
#
# Revision: 0
# Processed by: cddbd v1.5.1PL2 Copyright (c) Steve Scherf et al.
# Submitted via: FreeRIP 2.944 
#
DISCID=200e1014
DTITLE=Varios - Meio Seculo de Musica Sertaneja
DYEAR=2000
DGENRE=Country
TTITLE0=Morrendo de amor
TTITLE1=Redeas do possante
TTITLE2=Espinho na cama
TTITLE3=Cowboy da madrugada
TTITLE4=O menino e o boiadeiro
TTITLE5=Ladrao de mulher
TTITLE6=Ebrio de amor
TTITLE7=Ceu de goias
TTITLE8=Lembrancas de amor
TTITLE9=O homem mau
TTITLE10=Recordacoes
TTITLE11=Cabocla tereza
TTITLE12=Convite de casamento
TTITLE13=Minhas gerais
TTITLE14=Recordando minha terra
TTITLE15=Pra la da porteira
TTITLE16=Festa no ceu
TTITLE17=Disparada
TTITLE18=A volta do seresteiro
TTITLE19=Canoeiro apaixonado
EXTD=
EXTT0=
EXTT1=
EXTT2=
EXTT3=
EXTT4=
EXTT5=
EXTT6=
EXTT7=
EXTT8=
EXTT9=
EXTT10=
EXTT11=
EXTT12=
EXTT13=
EXTT14=
EXTT15=
EXTT16=
EXTT17=
EXTT18=
EXTT19=
PLAYORDER=
